<?xml version="1.0" encoding="utf-8"?>
<!-- Generator: Adobe Illustrator 23.0.2, SVG Export Plug-In . SVG Version: 6.00 Build 0)  -->
<svg version="1.1" fill="#fff" id="Layer_1" xmlns="http://www.w3.org/2000/svg" xmlns:xlink="http://www.w3.org/1999/xlink" x="0px" y="0px"
	 viewBox="0 0 1183.0118 267.7014" enable-background="new 0 0 1183.0118 267.7014" xml:space="preserve">
<g>
	<path d="M1182.4678,186.7667v-17.0054h-68.187v-12.2338h-20.2783v-50.6952h-3.46v50.6952h-5.4719V46.2395h-3.4602v111.2881
		h-19.1516v12.2338H0.5439v17.0054H0c0,0,64.5554,25.1598,88.0934,49.1675c-0.5981,0.681-0.9736,1.5618-0.9736,2.5326v4.0486
		c0,2.1243,1.7388,3.8616,3.863,3.8616h1001.0474c2.1243,0,3.8616-1.7373,3.8616-3.8616v-4.0486
		c0-0.9708-0.3752-1.8516-0.9736-2.5326c23.5381-24.0077,88.0935-49.1675,88.0935-49.1675H1182.4678z"/>
	<path d="M325.2249,132.6628v25.8304h13.0962V54.8496h10.4609V39.7214h-16.9789v-6.7593h-46.8068V15.134h7.283v-3.0293h-7.283
		V8.6462h7.283V5.6169h-7.283V0h-3.0293v5.6169h-7.283v3.0293h7.283v3.4585h-7.283v3.0293h7.283v17.8281h-12.4467v6.7593h-16.9789
		v15.1282h10.4609v103.6437h13.096v-25.8304H325.2249z M286.2374,102.3262h-10.139v-6.1433h10.139V102.3262z M286.2374,90.9172
		h-10.139v-6.1431h10.139V90.9172z M305.731,102.3262h-10.1391v-6.1433h10.1391V102.3262z M305.731,90.9172h-10.1391v-6.1431
		h10.1391V90.9172z M325.2245,102.3262h-10.1391v-6.1433h10.1391V102.3262z M325.2245,90.9172h-10.1391v-6.1431h10.1391V90.9172z"/>
	<rect x="352.564" y="136.9277" width="56.65" height="21.5656"/>
	<rect x="352.564" y="109.5281" width="56.65" height="21.5657"/>
	<rect x="352.564" y="82.1284" width="56.65" height="21.5657"/>
	<rect x="417.1536" y="136.9277" width="56.65" height="21.5656"/>
	<rect x="417.1536" y="109.5281" width="56.65" height="21.5657"/>
	<rect x="417.1536" y="82.1284" width="56.65" height="21.5657"/>
	<rect x="127.8954" y="136.9277" width="56.65" height="21.5656"/>
	<rect x="127.8954" y="109.5281" width="56.65" height="21.5657"/>
	<rect x="192.485" y="136.9277" width="56.65" height="21.5656"/>
	<rect x="192.485" y="109.5281" width="56.65" height="21.5657"/>
	<rect x="192.485" y="82.1284" width="56.65" height="21.5657"/>
	<rect x="481.7431" y="136.9277" width="56.65" height="21.5656"/>
	<rect x="481.7431" y="109.5281" width="56.65" height="21.5657"/>
	<rect x="481.7431" y="82.1284" width="56.65" height="21.5657"/>
	<rect x="546.3326" y="136.9277" width="56.65" height="21.5656"/>
	<rect x="546.3326" y="109.5281" width="56.65" height="21.5657"/>
	<rect x="546.3326" y="82.1284" width="56.65" height="21.5657"/>
	<rect x="610.9222" y="136.9277" width="56.65" height="21.5656"/>
	<rect x="610.9222" y="109.5281" width="56.65" height="21.5657"/>
	<rect x="610.9222" y="82.1284" width="56.65" height="21.5657"/>
	<rect x="675.5117" y="136.9277" width="56.65" height="21.5656"/>
	<rect x="675.5117" y="109.5281" width="56.65" height="21.5657"/>
	<rect x="675.5117" y="82.1284" width="56.65" height="21.5657"/>
	<rect x="740.1013" y="136.9277" width="56.65" height="21.5656"/>
	<rect x="740.1013" y="109.5281" width="56.65" height="21.5657"/>
	<rect x="740.1013" y="82.1284" width="56.65" height="21.5657"/>
	<rect x="804.6908" y="136.9277" width="56.65" height="21.5656"/>
	<rect x="804.6908" y="109.5281" width="56.65" height="21.5657"/>
	<rect x="804.6908" y="82.1284" width="56.65" height="21.5657"/>
	<rect x="869.2803" y="136.9277" width="56.6499" height="21.5656"/>
	<rect x="869.2803" y="109.5281" width="56.6499" height="21.5657"/>
	<rect x="869.2803" y="82.1284" width="56.6499" height="21.5657"/>
	<rect x="933.8699" y="136.9277" width="56.6499" height="21.5656"/>
	<rect x="933.8699" y="109.5281" width="56.6499" height="21.5657"/>
	<path d="M1075.4746,255.9287H107.5381c-1.4532,0-2.6422,1.189-2.6422,2.6421v6.4885c0,1.4531,1.189,2.6421,2.6422,2.6421h967.9365
		c1.4531,0,2.6421-1.189,2.6421-2.6421v-6.4885C1078.1167,257.1177,1076.9277,255.9287,1075.4746,255.9287z"/>
</g>
</svg>
