<?xml version="1.0" encoding="utf-8"?>
<!-- Generator: Adobe Illustrator 25.1.0, SVG Export Plug-In . SVG Version: 6.00 Build 0)  -->
<svg version="1.1" id="Layer_1"  fill="#fff" xmlns="http://www.w3.org/2000/svg" xmlns:xlink="http://www.w3.org/1999/xlink" x="0px" y="0px"
	 viewBox="0 0 864 864" style="enable-background:new 0 0 864 864;" xml:space="preserve">
<path d="M41,516c0-0.7,0-1.3,0-2c4.1-1.1,6.6-3.7,6.8-7.9c0.2-3.8-0.5-7.6-0.2-11.3c2.1-24.6,4.4-49.1,6.6-73.7
	c1.2-13,4.8-17.3,17.8-20.4c7.9-1.9,65.2-13.5,84.1-16.2c11.6-1.7,22.8-6,35.1-4.2c8.7,1.3,17.8,0.2,26.7,0.2c0-0.7,0-1.5,0-2.2
	c-8.8,0-17.7,0-26.5,0c0-0.4,0-0.8,0-1.1c2.3-0.1,4.7-0.3,8.4-0.5c-3.4-0.8-5.4-1.2-7.5-1.7c2.1-1.3,4.1-1.8,6-1.7
	c3.8,0.1,7.6,0.8,11.4,0.7c1.4-0.1,2.8-1.8,4.1-2.8c-0.2-0.8-0.4-1.5-0.5-2.3c3.5,0.9,7.1,1.8,10.6,2.7c-0.1,0.5,0,0.8-0.1,0.8
	c-0.8,0.4-1.5,0.8-2.9,1.5c18.1,2.1,35.4,5.5,53.2,4.2c4.1-0.3,8.3-0.2,12.5-0.2c7.1,0,14.7-1.2,19.2,8.7c3.8-5,8-8.3,9.2-12.5
	c4.1-14.4,6.8-29.2,6.2-44.3c-0.2-6-3.3-9.6-9.1-11.1c-2.9-0.7-6-1-8.9-0.8c-25.4,2.1-50.6,6.3-75.2,13.1
	c-11.2,3.1-22.2,7.3-31.5,16.4c1.6-2.8,2.9-4.7,3.9-6.7c4.1-8.9,8.3-17.8,12.2-26.8c13.4-30.2,38.6-46.6,68.3-56.7
	c23.6-8,47.9-14,71.9-21.1c12.7-3.7,25.5-3.5,38.8-2.8c0,14.6,0,28.7,0,41.2c-8.8,5.5-16.9,10.4-24.8,15.4
	c-4.9,3.1-9.2,7.3-14.4,9.6c-8.3,3.7-17.2,6.3-25.8,9.3c-4.5,1.6-8.9,3.2-13.4,4.8c5.1,0.6,10-0.2,14.5,0.7
	c18.3,3.5,36.6,7.4,54.8,11.2c7.9,1.6,8.5,1.9,8.4,10.4c-0.5,48.8-1.3,97.6-2,146.4c0,1-0.1,2.6-0.5,2.8c-3.7,1.1-2.2,4.2-2.9,6.5
	c-0.7,2.4-2.1,4.6-3.2,6.9c7.4-0.4,15.9-0.9,24.7-1.4c-0.7-85.7-1.5-172.1-2.3-259.6c133.6,41.5,266.6,82.9,398.5,123.9
	c1.4,43.6,2.8,85.7,4.2,128.8c-12.8,0-25.3,0-37.5,0c2.8,6.2,6.3,11.4,7.4,17c1.5,7.6,1.1,15.6,1.4,23.4c0.2,5.7-1.1,10.7-5.9,13.3
	c-3.2,1.7-8.5,3.7-12,4c-9,0.8-19.1-0.3-26.4-5.7c-5.1,3.1-9.3,7.2-14.3,8.2C713.6,552,708,554,701,554c-9,0-15-5.5-18.7-12.5
	c-0.8-1.5-3.6-3-5.3-2.9c-8.6,0.7-17.2,2.3-25.9,3.1c-16.1,1.3-32.2,2.4-48.4,3.4c-3.5,0.2-5.3,1-5.5,5.1
	c-0.5,10.4-5.1,19.3-12.4,26.5c-1.7,1.7-4.9,2.9-7.3,2.8c-11-0.5-21.9-1.4-32.9-2.4c-5.7-0.5-8.5,0.9-14.7,4.9
	c-0.5,0.3-17,5.9-24.8,6.3c-10.3,0.4-20.6-1.7-30.9-1.9c-14.2-0.3-21.5-9.7-28.5-19.8c-1-1.4-1.3-3.3-2-5.4c8.5-0.7,16.4-1.3,24.3-2
	c0-2.3,0-4.2,0-6.1c-3,0-5.7-0.2-8.3,0c-29.1,2-126.8,8.8-138.2,8.8c-0.7,8.1-1.3,16.8-2.4,25.3c-0.5,3.8-15.2,33.9-36.9,35.8
	c-12,1-25,2-35.7-4.9c-13.5-8.7-27.8-13.9-31.6-31.2c-0.3-1.3-3-2.8-4.7-2.9c-10-0.7-20-1.2-29.9-1.4c-1.7,0-3.5,1.5-5,2.6
	c-3.2,2.5-5.9,5.9-9.5,7.9c-11.1,6.1-23.2,8.4-35.7,6.8c-19.1-2.5-35.7-8.9-42-29.8c-0.4-1.4-3-2.8-4.8-3
	c-10.7-1.4-21.5-2.4-32.2-3.8c-1.6-0.2-3.9-1.1-4.4-2.2c-1.9-4.3-3.1-9-4.8-14.1c2.5,0.2,4.1,0.3,5.8,0.4c22.9,1.6,45.7,4,68.6,4.5
	c30,0.6,59.9-0.4,89.9-0.9c4.8-0.1,11,1.1,13.9-1.4c3-2.5,2.8-8.8,3.8-13.5c1.1-5.4,2-10.9,2.9-16.5c-39.7,0-78.4,0-117.2,0
	c-0.3,5.2,0,10.1-1.1,14.7c-0.9,3.8-0.2,9.7-5.3,10.6c-4.9-1.9-4.9-6.8-5-11.1c-0.1-4.8,0-9.6,0-15.1c-13.3,0-26,0-38.8,0
	c-2.5,7.8,0,25.3-6,25.1c-7-0.9-2.3-17.4-3.9-25.7C46.4,517.4,43.7,516.7,41,516z M333.4,474.8c12,0,24,0,35.9,0
	c9.3,0,13.5-4.1,13.3-13.4c-0.2-12.2-0.5-24.3-0.8-36.5c-0.7-28.8-1.5-57.6-2.1-86.4c-0.1-3.2-0.7-5.1-4.2-6
	c-13-3.5-25.9-7.5-38.9-11c-1.9-0.5-5.4-0.1-6.3,1.2c-2.9,4.2-5.6,8.8-7.2,13.7c-1.3,3.8-1,8.1-1.5,12.2c-1.8,14-4.6,27.9-5.2,42
	c-0.7,18.1,0.4,36.3,0.7,54.5c0,1.3-0.2,2.6-0.3,4c-6.8-14.4-18.9-16.4-32.6-16.1c-27.5,0.6-55,0.4-82.5,1.1
	c-9.2,0.2-18.9,0.9-27.5,3.8c-15.7,5.2-31,12-46.2,18.7c-2,0.9-3.5,5.1-3.7,7.9c-0.8,11.8-1,23.6-1.4,35.5c-0.1,1.6,0,3.2,0,4.8
	c1.3,0.2,1.9,0.3,2.6,0.3c34,0.3,68,0.5,102,0.9c2.9,0,3.9-1.1,5-3.6c3.9-8.8,8-17.5,12.3-26.1c2.4-4.7,6.4-6.5,12-6.2
	c19,1,38,1.5,56.9,2.2c5.1,0.2,9.7,1.2,13.6,5c3.1,3,6.9,5.4,10.4,8.1c0.6-0.5,1.1-0.9,1.7-1.4C337.3,480.7,335.3,477.7,333.4,474.8
	z M117.6,404.1c-1.6,1.2-2.4,2.5-3.5,2.7c-17.2,2.8-34.4,5.5-51.8,8.3c-0.3-1.3-0.6-2.4-0.9-3.6c-5.1,2.1-6,6.4-6.3,10.7
	c-1.7,21.4-3.3,42.8-4.8,64.2c-0.7,10.5,3.1,14.2,13.6,14.1c13.1-0.2,26.3-0.5,39.4-0.3c5.9,0.1,8.2-1.1,9.4-6.9
	c0.5-2.6,0.8-5.3,0.9-7.9c1-22.1,2-44.2,3-66.3C117.1,414.1,117.4,409.2,117.6,404.1z M305.9,560.4c-1.4-5.6-2.9-15.7-6.6-25.1
	c-3.2-8.2-14.1-14.5-24.4-12.2c-27,6-38.8,37.6-22.3,59.8c5.7,7.6,13.3,13.5,22.8,13.8C291.1,597.3,306.1,580.8,305.9,560.4z
	 M357,513.9c34.8,0,69,0,103.7,0c-0.4-2.8-0.6-4.6-0.8-6.3c-34.6,0-68.8,0-103.4,0C356.7,510.2,356.9,512.3,357,513.9z M497.8,558.3
	c2.7,3.1,4.4,5.5,6.6,7.4c7.5,6.3,13.2,5.4,17.5-3.4c2.4-4.8,3.8-10.2,5.1-15.5c3.1-12.7-2-22.4-12-29.9c-4.6-3.4-7.3-3-11.4,1.6
	c9,7.1,17.4,14.9,13.5,27.9C514.5,554.9,507.3,557.7,497.8,558.3z M573.9,557.9c1.1,0.9,2.3,1.9,3.6,3c5,4,7.3,3.8,9.8-2.2
	c2.3-5.6,4.8-11.6,5.3-17.5c0.7-9-2.2-17.5-8.3-24.4c-3.9-4.5-8.5-4.1-12.2,0.5c0.7,0.4,1.4,0.8,2,1.2c9.4,5.2,11.5,10.1,7.9,20
	C579.8,544.7,576.9,550.7,573.9,557.9z M594.3,494.4c0,0.2,0,0.4,0,0.6c1.8,0,3.5,0,5.3,0c17.3-0.3,34.6-0.6,51.9-1.2
	c4.1-0.1,6.4,1.1,8.1,4.7c1,2.1,2.8,5.2,4.5,5.3c7.2,0.6,14.5,0.3,21.7,0.3c0.2-0.6,0.4-1.2,0.6-1.8c-2-1.2-4-2.4-6-3.6
	c2.4-4.4,5.9-6.3,11-5.9c4.8,0.4,9.6,0.1,14.5,0c8.5-0.2,17.1-1.2,24.1,5c10.1-9.4,22.4-4.5,33.4-7.2
	C707.1,492,650.7,493.2,594.3,494.4z M711.7,536.3c-0.6,0.7-1.2,1.4-1.8,2.1c2.1,1.3,4.1,2.7,6.3,3.9c3,1.5,6.5,3.5,9,0
	c8.6-11.7,12.3-25.7-2.6-35.2c-3.3-2.1-5.8-1.7-8.1,1.3c10.4,6.2,12.4,8.3,11.1,12.7C722.1,533.2,722.3,534.4,711.7,536.3z
	 M496.7,531.3c0,8.9,0,16.5,0,24.4c7.4-0.8,12.9-2.8,16.1-9c1.9-3.5,1.6-6.5-2.1-8.5C506.6,535.9,502.2,533.9,496.7,531.3z
	 M762.8,504.6c12.4,13,10.7,18.7,0.4,32.5c2.4,1.1,4.7,3.2,6.7,2.9c1.8-0.3,4-3,4.5-5.1c1.1-4.6,2.4-9.7,1.7-14.2
	c-0.9-5.1-3.5-10.1-6.1-14.8C768.7,503.6,765.8,502.1,762.8,504.6z M570.3,551.2c5.6-3.6,9.9-7.5,9-13.9c-0.8-5.8-5.8-8-11-10.3
	C566.3,535.4,566.6,543.2,570.3,551.2z M582.5,495.5c0-0.2,0-0.5,0-0.7c-56.4,1.2-112.8,2.5-169.1,3.7c0,0.3,0,0.6,0,0.9
	C469.8,498.1,526.2,496.8,582.5,495.5z M710.1,514.9c-0.3,6.3-0.5,11.6-0.8,17.3c5.2-0.7,9.6-0.3,11-5.7
	C722.3,518.7,715.4,518.4,710.1,514.9z M760,529.8c7.5,0.1,8.7-1.4,6.2-7c-1.4-3-3.4-5.8-5.2-8.6c-0.3,0.2-0.7,0.3-1,0.5
	C760,519.6,760,524.5,760,529.8z M112.4,402.8c-0.1-0.6-0.2-1.1-0.3-1.7c-10.8,2-21.6,3.9-32.4,5.9c0.1,0.4,0.1,0.8,0.2,1.1
	C90.7,406.4,101.6,404.6,112.4,402.8z M326.3,384.9c16.3,3,31.6,5.9,47.4,8.8c0.8-17.3,1.7-33.7,2.3-50.2c0-1.2-2.1-3.1-3.5-3.5
	c-10.9-3-21.8-5.8-32.8-8.5c-2.2-0.5-4.7-0.8-6.9-0.4c-3.3,0.6-4.8,4.2-2.7,6.3c3,3,6.3,5.7,9.9,9c0.4-2.9,0.7-4.9,0.9-6.9
	c3.9,0,7.3,0,10.9,0c0,11,0,21.7,0,32.5c-3.4,0-6.4,0-9.4,0c-0.8-2.1-1.6-4.1-2.7-7C335.1,371.7,331,377.9,326.3,384.9z
	 M127.3,495.9c-0.5-4.4-0.2-25.6,1.6-32.9c26,0,52.2,0,78.6,0c0,10.9,0,22.1,0,32.9C180.4,495.9,154,495.9,127.3,495.9z M179.9,480
	c1.7,0.4,3.1,0.9,4.5,1c6,0.3,12,0.5,17.9,0.5c1.4,0,2.8-1.3,4.2-2c-1.3-0.9-2.6-2.3-4-2.5c-7.2-0.7-14.5-1.1-21.8-1.7
	c0-3.6,0-6.7,0-9.4c-15.4,0-30.7,0-45.9,0.1c-0.8,0-2.3,1.2-2.3,1.9c-0.8,8.2-1.3,16.4-2,25c16.9,0,33.1,0,49.5,0
	C179.9,488.8,179.9,484.5,179.9,480z M321.1,373.4c-0.5,2.8,0.6,6,1,9c0.6,0,1.2,0,1.8,0.1c5.3-7,10.5-14.1,15.7-21.2
	c0.6-0.8,0.6-2.1,0.8-3.2c2.1-9.7-4.8-13.7-11.8-18.4C326,351.4,323.3,362.3,321.1,373.4z M57,492.6c18.1-1.1,36.3-2.3,55.3-3.5
	c-2.8-3.2-47.2-1.5-57.7,1.3C55.6,491.5,56.3,492.7,57,492.6z M57,437c1.1,0.6,2.3,1.7,3.3,1.6c17.8-3,36-4.6,53.6-8.5
	c-0.1-0.8-0.3-1.6-0.4-2.4c-18.7,2.7-37.5,5.5-56.2,8.2C57.2,436.2,57.1,436.6,57,437z M54.8,478c0.7,0.5,1.5,1.5,2.2,1.4
	c17.8-2.6,35.5-5.3,53.3-8.1c0.4-0.1,0.7-1.2,1.7-3c-19.6,2.9-38.3,5.6-56.9,8.3C54.9,477.1,54.9,477.6,54.8,478z M56.4,445.4
	c1.4,0.4,2.8,1.2,4.1,1c16.6-2.4,33.2-4.9,49.7-7.5c1.1-0.2,2-1.3,3-1.9c-0.2-0.5-0.5-0.9-0.7-1.4c-18.6,2.7-37.3,5.5-55.9,8.2
	C56.6,444.3,56.5,444.9,56.4,445.4z M55.5,468.3c1.2,0.5,2.3,1.4,3.5,1.5c2,0.1,4-0.5,5.9-0.7c14.2-1.4,28.5-2.8,42.7-4.3
	c1.7-0.2,3.4-1.1,5-1.6c-0.2-0.6-0.4-1.3-0.5-1.9c-18.8,1.9-37.5,3.8-56.3,5.6C55.8,467.3,55.7,467.8,55.5,468.3z M57.3,423.4
	c19.2-2.7,38.5-5.4,57.6-8.7c-0.1-0.7-0.2-1.4-0.3-2.1c-19.2,2.9-38.4,5.8-57.6,8.8C57.1,422,57.2,422.7,57.3,423.4z M58.6,430.1
	c18.2-2.7,36.4-5.4,54.6-8.2c-0.1-0.6-0.2-1.3-0.3-1.9c-18.2,2.7-36.4,5.3-54.6,8C58.4,428.6,58.5,429.3,58.6,430.1z M271,564.5
	c0.8,4.6,2.2,8.9,7.5,10.1c4,0.9,8-1.8,10.8-7.2c0.5-0.9,0.9-1.8,1.3-2.7c1.8-5-1.5-15.4-5.6-17.6c-3.1-1.7-9.5,0.6-12.5,5
	c-1.4,2-1.6,4.8-2,6C270.7,561.2,270.8,562.9,271,564.5z M280.6,535.4c2.8,0.6,4-0.9,2.7-3.8c-1.7-3.8-5.1-4.2-12-0.2
	C275.1,533.1,277.7,534.7,280.6,535.4z M280.4,584.1c-3.4,1.7-6.5,3.3-10.3,5.3C278.9,591.8,280.9,590.9,280.4,584.1z"/>
</svg>
